REM DIRINDEX 1\2\4\18,1\2\4\19,1\2\5\20,1\2\5\21,1\2\6\22,1\2\7\23,1\2\8\24,1\2\8\25,1\2\9\26,1\2\10\27,1\3\11\28,1\3\11\29,1\3\11\30,1\3\11\31,1\3\12\32,1\3\12\33,1\3\12\34,1\3\12\35,1\3\13\36,1\3\13\37,1\3\14\38,1\3\14\39,1\3\15\40,1\3\15\41,1\3\15\42,1\3\16\43,1\3\16\44,1\3\17\45,1\3\17\46
REM DIRNAME folder01,folder02,folder03,folder04,folder05,folder06,folder07,folder08,folder09,folder10,folder11,folder12,folder13,folder14,folder15,folder16,folder17,folder18,folder19,folder20,folder21,folder22,folder23,folder24,folder25,folder26,folder27,folder28,folder29,folder30,folder31,folder32,folder33,folder34,folder35,folder36,folder37,folder38,folder39,folder40,folder41,folder42,folder43,folder44,folder45,folder46
TITLE ""
FILE "12.mp3" MP3
  TRACK 01 AUDIO
    TITLE "0:"
    INDEX 01 00:00:00
  TRACK 02 AUDIO
    TITLE "28:cjc024_6321"
    INDEX 01 00:00:13
  TRACK 03 AUDIO
    TITLE "0:"
    INDEX 01 00:01:17
  TRACK 04 AUDIO
    TITLE "29:cjc024_6322"
    INDEX 01 00:01:52
  TRACK 05 AUDIO
    TITLE "0:"
    INDEX 01 00:03:12
  TRACK 06 AUDIO
    TITLE "30:cjc024_6323"
    INDEX 01 00:03:47
  TRACK 07 AUDIO
    TITLE "0:"
    INDEX 01 00:05:14
  TRACK 08 AUDIO
    TITLE "31:cjc024_6324"
    INDEX 01 00:05:38
  TRACK 09 AUDIO
    TITLE "0:"
    INDEX 01 00:07:03
  TRACK 10 AUDIO
    TITLE "28:cjc024_6325"
    INDEX 01 00:08:03
  TRACK 11 AUDIO
    TITLE "0:"
    INDEX 01 00:09:16
  TRACK 12 AUDIO
    TITLE "29:cjc024_6326"
    INDEX 01 00:09:57
  TRACK 13 AUDIO
    TITLE "0:"
    INDEX 01 00:10:66
  TRACK 14 AUDIO
    TITLE "30:cjc024_6327"
    INDEX 01 00:11:27
  TRACK 15 AUDIO
    TITLE "0:"
    INDEX 01 00:12:69
  TRACK 16 AUDIO
    TITLE "31:cjc024_6328"
    INDEX 01 00:13:22
  TRACK 17 AUDIO
    TITLE "0:"
    INDEX 01 00:14:64
  TRACK 18 AUDIO
    TITLE "28:cjc024_6329"
    INDEX 01 00:15:68
  TRACK 19 AUDIO
    TITLE "0:"
    INDEX 01 00:17:06
  TRACK 20 AUDIO
    TITLE "29:cjc024_6330"
    INDEX 01 00:17:45
  TRACK 21 AUDIO
    TITLE "0:"
    INDEX 01 00:19:36
  TRACK 22 AUDIO
    TITLE "30:cjc024_6331"
    INDEX 01 00:20:00
  TRACK 23 AUDIO
    TITLE "0:"
    INDEX 01 00:21:72
  TRACK 24 AUDIO
    TITLE "31:cjc024_6332"
    INDEX 01 00:22:25
  TRACK 25 AUDIO
    TITLE "0:"
    INDEX 01 00:24:24
  TRACK 26 AUDIO
    TITLE "28:cjc024_6333"
    INDEX 01 00:25:23
  TRACK 27 AUDIO
    TITLE "0:"
    INDEX 01 00:26:40
  TRACK 28 AUDIO
    TITLE "29:cjc024_6334"
    INDEX 01 00:27:02
  TRACK 29 AUDIO
    TITLE "0:"
    INDEX 01 00:29:03
  TRACK 30 AUDIO
    TITLE "30:cjc024_6335"
    INDEX 01 00:29:42
  TRACK 31 AUDIO
    TITLE "0:"
    INDEX 01 00:31:47
  TRACK 32 AUDIO
    TITLE "31:cjc024_6336"
    INDEX 01 00:31:71
  TRACK 33 AUDIO
    TITLE "0:"
    INDEX 01 00:33:73
  TRACK 34 AUDIO
    TITLE "28:cjc024_6337"
    INDEX 01 00:34:73
  TRACK 35 AUDIO
    TITLE "0:"
    INDEX 01 00:36:09
  TRACK 36 AUDIO
    TITLE "29:cjc024_6338"
    INDEX 01 00:36:50
  TRACK 37 AUDIO
    TITLE "0:"
    INDEX 01 00:39:51
  TRACK 38 AUDIO
    TITLE "30:cjc024_6339"
    INDEX 01 00:40:13
  TRACK 39 AUDIO
    TITLE "0:"
    INDEX 01 00:43:40
  TRACK 40 AUDIO
    TITLE "31:cjc024_6340"
    INDEX 01 00:43:68
  TRACK 41 AUDIO
    TITLE "0:"
    INDEX 01 00:47:21
  TRACK 42 AUDIO
    TITLE "28:cjc024_6341"
    INDEX 01 00:48:22
  TRACK 43 AUDIO
    TITLE "0:"
    INDEX 01 00:49:49
  TRACK 44 AUDIO
    TITLE "29:cjc024_6342"
    INDEX 01 00:50:11
  TRACK 45 AUDIO
    TITLE "0:"
    INDEX 01 00:52:51
  TRACK 46 AUDIO
    TITLE "30:cjc024_6343"
    INDEX 01 00:53:13
  TRACK 47 AUDIO
    TITLE "0:"
    INDEX 01 00:55:53
  TRACK 48 AUDIO
    TITLE "31:cjc024_6344"
    INDEX 01 00:56:02
  TRACK 49 AUDIO
    TITLE "0:"
    INDEX 01 00:58:44
  TRACK 50 AUDIO
    TITLE "28:cjc024_6345"
    INDEX 01 00:59:41
  TRACK 51 AUDIO
    TITLE "0:"
    INDEX 01 01:00:64
  TRACK 52 AUDIO
    TITLE "29:cjc024_6346"
    INDEX 01 01:01:25
  TRACK 53 AUDIO
    TITLE "0:"
    INDEX 01 01:02:54
  TRACK 54 AUDIO
    TITLE "30:cjc024_6347"
    INDEX 01 01:03:12
  TRACK 55 AUDIO
    TITLE "0:"
    INDEX 01 01:05:15
  TRACK 56 AUDIO
    TITLE "31:cjc024_6348"
    INDEX 01 01:05:42
  TRACK 57 AUDIO
    TITLE "0:"
    INDEX 01 01:07:45
  TRACK 58 AUDIO
    TITLE "28:cjc024_6349"
    INDEX 01 01:08:52
  TRACK 59 AUDIO
    TITLE "0:"
    INDEX 01 01:10:14
  TRACK 60 AUDIO
    TITLE "29:cjc024_6350"
    INDEX 01 01:10:51
  TRACK 61 AUDIO
    TITLE "0:"
    INDEX 01 01:13:61
  TRACK 62 AUDIO
    TITLE "30:cjc024_6351"
    INDEX 01 01:14:23
  TRACK 63 AUDIO
    TITLE "0:"
    INDEX 01 01:17:10
  TRACK 64 AUDIO
    TITLE "31:cjc024_6352"
    INDEX 01 01:17:33
  TRACK 65 AUDIO
    TITLE "0:"
    INDEX 01 01:20:18
  TRACK 66 AUDIO
    TITLE "28:cjc024_6353"
    INDEX 01 01:21:21
  TRACK 67 AUDIO
    TITLE "0:"
    INDEX 01 01:22:15
  TRACK 68 AUDIO
    TITLE "29:cjc024_6354"
    INDEX 01 01:22:52
  TRACK 69 AUDIO
    TITLE "0:"
    INDEX 01 01:25:51
  TRACK 70 AUDIO
    TITLE "30:cjc024_6355"
    INDEX 01 01:26:13
  TRACK 71 AUDIO
    TITLE "0:"
    INDEX 01 01:28:57
  TRACK 72 AUDIO
    TITLE "31:cjc024_6356"
    INDEX 01 01:29:07
  TRACK 73 AUDIO
    TITLE "0:"
    INDEX 01 01:31:53
  TRACK 74 AUDIO
    TITLE "28:cjc024_6357"
    INDEX 01 01:32:55
  TRACK 75 AUDIO
    TITLE "0:"
    INDEX 01 01:34:05
  TRACK 76 AUDIO
    TITLE "29:cjc024_6358"
    INDEX 01 01:34:40
  TRACK 77 AUDIO
    TITLE "0:"
    INDEX 01 01:36:00
  TRACK 78 AUDIO
    TITLE "30:cjc024_6359"
    INDEX 01 01:36:39
  TRACK 79 AUDIO
    TITLE "0:"
    INDEX 01 01:38:08
  TRACK 80 AUDIO
    TITLE "31:cjc024_6360"
    INDEX 01 01:38:34
  TRACK 81 AUDIO
    TITLE "0:"
    INDEX 01 01:40:03
  TRACK 82 AUDIO
    TITLE "28:cjc024_6361"
    INDEX 01 01:41:03
  TRACK 83 AUDIO
    TITLE "0:"
    INDEX 01 01:42:16
  TRACK 84 AUDIO
    TITLE "29:cjc024_6362"
    INDEX 01 01:42:53
  TRACK 85 AUDIO
    TITLE "0:"
    INDEX 01 01:44:28
  TRACK 86 AUDIO
    TITLE "30:cjc024_6363"
    INDEX 01 01:44:66
  TRACK 87 AUDIO
    TITLE "0:"
    INDEX 01 01:46:23
  TRACK 88 AUDIO
    TITLE "31:cjc024_6364"
    INDEX 01 01:46:47
  TRACK 89 AUDIO
    TITLE "0:"
    INDEX 01 01:48:07
  TRACK 90 AUDIO
    TITLE "28:cjc024_6365"
    INDEX 01 01:49:06
  TRACK 91 AUDIO
    TITLE "0:"
    INDEX 01 01:50:17
  TRACK 92 AUDIO
    TITLE "29:cjc024_6366"
    INDEX 01 01:50:56
  TRACK 93 AUDIO
    TITLE "0:"
    INDEX 01 01:52:71
  TRACK 94 AUDIO
    TITLE "30:cjc024_6367"
    INDEX 01 01:53:33
  TRACK 95 AUDIO
    TITLE "0:"
    INDEX 01 01:55:26
  TRACK 96 AUDIO
    TITLE "31:cjc024_6368"
    INDEX 01 01:55:54
  TRACK 97 AUDIO
    TITLE "0:"
    INDEX 01 01:57:47
  TRACK 98 AUDIO
    TITLE "28:cjc024_6369"
    INDEX 01 01:58:50
  TRACK 99 AUDIO
    TITLE "0:"
    INDEX 01 01:59:53
  TRACK 100 AUDIO
    TITLE "29:cjc024_6370"
    INDEX 01 02:00:16
  TRACK 101 AUDIO
    TITLE "0:"
    INDEX 01 02:02:30
  TRACK 102 AUDIO
    TITLE "30:cjc024_6371"
    INDEX 01 02:02:67
  TRACK 103 AUDIO
    TITLE "0:"
    INDEX 01 02:04:59
  TRACK 104 AUDIO
    TITLE "31:cjc024_6372"
    INDEX 01 02:05:09
  TRACK 105 AUDIO
    TITLE "0:"
    INDEX 01 02:06:71
  TRACK 106 AUDIO
    TITLE "28:cjc024_6373"
    INDEX 01 02:08:00
  TRACK 107 AUDIO
    TITLE "0:"
    INDEX 01 02:09:19
  TRACK 108 AUDIO
    TITLE "29:cjc024_6374"
    INDEX 01 02:09:58
  TRACK 109 AUDIO
    TITLE "0:"
    INDEX 01 02:11:37
  TRACK 110 AUDIO
    TITLE "30:cjc024_6375"
    INDEX 01 02:12:01
  TRACK 111 AUDIO
    TITLE "0:"
    INDEX 01 02:13:50
  TRACK 112 AUDIO
    TITLE "31:cjc024_6376"
    INDEX 01 02:13:73
  TRACK 113 AUDIO
    TITLE "0:"
    INDEX 01 02:15:49
  TRACK 114 AUDIO
    TITLE "28:cjc024_6377"
    INDEX 01 02:16:46
  TRACK 115 AUDIO
    TITLE "0:"
    INDEX 01 02:17:55
  TRACK 116 AUDIO
    TITLE "29:cjc024_6378"
    INDEX 01 02:18:18
  TRACK 117 AUDIO
    TITLE "0:"
    INDEX 01 02:21:02
  TRACK 118 AUDIO
    TITLE "30:cjc024_6379"
    INDEX 01 02:21:41
  TRACK 119 AUDIO
    TITLE "0:"
    INDEX 01 02:24:26
  TRACK 120 AUDIO
    TITLE "31:cjc024_6380"
    INDEX 01 02:24:53
  TRACK 121 AUDIO
    TITLE "0:"
    INDEX 01 02:27:40
  TRACK 122 AUDIO
    TITLE "28:cjc024_6381"
    INDEX 01 02:28:41
  TRACK 123 AUDIO
    TITLE "0:"
    INDEX 01 02:29:58
  TRACK 124 AUDIO
    TITLE "29:cjc024_6382"
    INDEX 01 02:30:21
  TRACK 125 AUDIO
    TITLE "0:"
    INDEX 01 02:32:43
  TRACK 126 AUDIO
    TITLE "30:cjc024_6383"
    INDEX 01 02:33:05
  TRACK 127 AUDIO
    TITLE "0:"
    INDEX 01 02:35:02
  TRACK 128 AUDIO
    TITLE "31:cjc024_6384"
    INDEX 01 02:35:28
  TRACK 129 AUDIO
    TITLE "0:"
    INDEX 01 02:37:25
  TRACK 130 AUDIO
    TITLE "28:cjc024_6385"
    INDEX 01 02:38:24
  TRACK 131 AUDIO
    TITLE "0:"
    INDEX 01 02:39:31
  TRACK 132 AUDIO
    TITLE "29:cjc024_6386"
    INDEX 01 02:39:69
  TRACK 133 AUDIO
    TITLE "0:"
    INDEX 01 02:41:40
  TRACK 134 AUDIO
    TITLE "30:cjc024_6387"
    INDEX 01 02:42:04
  TRACK 135 AUDIO
    TITLE "0:"
    INDEX 01 02:43:41
  TRACK 136 AUDIO
    TITLE "31:cjc024_6388"
    INDEX 01 02:43:66
  TRACK 137 AUDIO
    TITLE "0:"
    INDEX 01 02:45:28
  TRACK 138 AUDIO
    TITLE "28:cjc024_6389"
    INDEX 01 02:46:30
  TRACK 139 AUDIO
    TITLE "0:"
    INDEX 01 02:47:51
  TRACK 140 AUDIO
    TITLE "29:cjc024_6390"
    INDEX 01 02:48:11
  TRACK 141 AUDIO
    TITLE "0:"
    INDEX 01 02:50:31
  TRACK 142 AUDIO
    TITLE "30:cjc024_6391"
    INDEX 01 02:50:68
  TRACK 143 AUDIO
    TITLE "0:"
    INDEX 01 02:53:02
  TRACK 144 AUDIO
    TITLE "31:cjc024_6392"
    INDEX 01 02:53:30
  TRACK 145 AUDIO
    TITLE "0:"
    INDEX 01 02:55:36
  TRACK 146 AUDIO
    TITLE "28:cjc024_6393"
    INDEX 01 02:56:40
  TRACK 147 AUDIO
    TITLE "0:"
    INDEX 01 02:57:35
  TRACK 148 AUDIO
    TITLE "29:cjc024_6394"
    INDEX 01 02:57:72
  TRACK 149 AUDIO
    TITLE "0:"
    INDEX 01 03:00:22
  TRACK 150 AUDIO
    TITLE "30:cjc024_6395"
    INDEX 01 03:00:61
  TRACK 151 AUDIO
    TITLE "0:"
    INDEX 01 03:02:50
  TRACK 152 AUDIO
    TITLE "31:cjc024_6396"
    INDEX 01 03:03:03
  TRACK 153 AUDIO
    TITLE "0:"
    INDEX 01 03:04:65
  TRACK 154 AUDIO
    TITLE "28:cjc024_6397"
    INDEX 01 03:05:68
  TRACK 155 AUDIO
    TITLE "0:"
    INDEX 01 03:07:02
  TRACK 156 AUDIO
    TITLE "29:cjc024_6398"
    INDEX 01 03:07:39
  TRACK 157 AUDIO
    TITLE "0:"
    INDEX 01 03:10:05
  TRACK 158 AUDIO
    TITLE "30:cjc024_6399"
    INDEX 01 03:10:44
  TRACK 159 AUDIO
    TITLE "0:"
    INDEX 01 03:13:13
  TRACK 160 AUDIO
    TITLE "31:cjc024_6400"
    INDEX 01 03:13:40
  TRACK 161 AUDIO
    TITLE "0:"
    INDEX 01 03:16:11
  TRACK 162 AUDIO
    TITLE "28:cjc024_6401"
    INDEX 01 03:17:12
  TRACK 163 AUDIO
    TITLE "0:"
    INDEX 01 03:18:45
  TRACK 164 AUDIO
    TITLE "29:cjc024_6402"
    INDEX 01 03:19:09
  TRACK 165 AUDIO
    TITLE "0:"
    INDEX 01 03:22:08
  TRACK 166 AUDIO
    TITLE "30:cjc024_6403"
    INDEX 01 03:22:51
  TRACK 167 AUDIO
    TITLE "0:"
    INDEX 01 03:24:73
  TRACK 168 AUDIO
    TITLE "31:cjc024_6404"
    INDEX 01 03:25:22
  TRACK 169 AUDIO
    TITLE "0:"
    INDEX 01 03:27:44
  TRACK 170 AUDIO
    TITLE "28:cjc024_6405"
    INDEX 01 03:28:48
  TRACK 171 AUDIO
    TITLE "0:"
    INDEX 01 03:29:59
  TRACK 172 AUDIO
    TITLE "29:cjc024_6406"
    INDEX 01 03:30:21
  TRACK 173 AUDIO
    TITLE "0:"
    INDEX 01 03:32:22
  TRACK 174 AUDIO
    TITLE "30:cjc024_6407"
    INDEX 01 03:32:57
  TRACK 175 AUDIO
    TITLE "0:"
    INDEX 01 03:34:48
  TRACK 176 AUDIO
    TITLE "31:cjc024_6408"
    INDEX 01 03:34:70
  TRACK 177 AUDIO
    TITLE "0:"
    INDEX 01 03:36:61
  TRACK 178 AUDIO
    TITLE "28:cjc024_6409"
    INDEX 01 03:37:60
  TRACK 179 AUDIO
    TITLE "0:"
    INDEX 01 03:39:20
  TRACK 180 AUDIO
    TITLE "29:cjc024_6410"
    INDEX 01 03:39:57
  TRACK 181 AUDIO
    TITLE "0:"
    INDEX 01 03:41:72
  TRACK 182 AUDIO
    TITLE "30:cjc024_6411"
    INDEX 01 03:42:36
  TRACK 183 AUDIO
    TITLE "0:"
    INDEX 01 03:44:31
  TRACK 184 AUDIO
    TITLE "31:cjc024_6412"
    INDEX 01 03:44:58
  TRACK 185 AUDIO
    TITLE "0:"
    INDEX 01 03:46:53
  TRACK 186 AUDIO
    TITLE "28:cjc024_6413"
    INDEX 01 03:47:59
  TRACK 187 AUDIO
    TITLE "0:"
    INDEX 01 03:48:66
  TRACK 188 AUDIO
    TITLE "29:cjc024_6414"
    INDEX 01 03:49:28
  TRACK 189 AUDIO
    TITLE "0:"
    INDEX 01 03:51:13
  TRACK 190 AUDIO
    TITLE "30:cjc024_6415"
    INDEX 01 03:51:51
  TRACK 191 AUDIO
    TITLE "0:"
    INDEX 01 03:53:26
  TRACK 192 AUDIO
    TITLE "31:cjc024_6416"
    INDEX 01 03:53:47
  TRACK 193 AUDIO
    TITLE "0:"
    INDEX 01 03:55:23
  TRACK 194 AUDIO
    TITLE "28:cjc024_6417"
    INDEX 01 03:56:20
  TRACK 195 AUDIO
    TITLE "0:"
    INDEX 01 03:57:32
  TRACK 196 AUDIO
    TITLE "29:cjc024_6418"
    INDEX 01 03:57:69
  TRACK 197 AUDIO
    TITLE "0:"
    INDEX 01 03:59:44
  TRACK 198 AUDIO
    TITLE "30:cjc024_6419"
    INDEX 01 04:00:04
  TRACK 199 AUDIO
    TITLE "0:"
    INDEX 01 04:02:13
  TRACK 200 AUDIO
    TITLE "31:cjc024_6420"
    INDEX 01 04:02:37
  TRACK 201 AUDIO
    TITLE "0:"
    INDEX 01 04:04:43
  TRACK 202 AUDIO
    TITLE "28:cjc024_6421"
    INDEX 01 04:05:51
  TRACK 203 AUDIO
    TITLE "0:"
    INDEX 01 04:06:72
  TRACK 204 AUDIO
    TITLE "29:cjc024_6422"
    INDEX 01 04:07:34
  TRACK 205 AUDIO
    TITLE "0:"
    INDEX 01 04:09:33
  TRACK 206 AUDIO
    TITLE "30:cjc024_6423"
    INDEX 01 04:09:70
  TRACK 207 AUDIO
    TITLE "0:"
    INDEX 01 04:11:38
  TRACK 208 AUDIO
    TITLE "31:cjc024_6424"
    INDEX 01 04:11:63
  TRACK 209 AUDIO
    TITLE "0:"
    INDEX 01 04:13:31
  TRACK 210 AUDIO
    TITLE "28:cjc024_6425"
    INDEX 01 04:14:30
  TRACK 211 AUDIO
    TITLE "0:"
    INDEX 01 04:15:37
  TRACK 212 AUDIO
    TITLE "29:cjc024_6426"
    INDEX 01 04:16:05
  TRACK 213 AUDIO
    TITLE "0:"
    INDEX 01 04:17:69
  TRACK 214 AUDIO
    TITLE "30:cjc024_6427"
    INDEX 01 04:18:42
  TRACK 215 AUDIO
    TITLE "0:"
    INDEX 01 04:20:33
  TRACK 216 AUDIO
    TITLE "31:cjc024_6428"
    INDEX 01 04:20:64
  TRACK 217 AUDIO
    TITLE "0:"
    INDEX 01 04:22:55
  TRACK 218 AUDIO
    TITLE "28:cjc024_6429"
    INDEX 01 04:23:54
  TRACK 219 AUDIO
    TITLE "0:"
    INDEX 01 04:25:04
  TRACK 220 AUDIO
    TITLE "29:cjc024_6430"
    INDEX 01 04:25:44
  TRACK 221 AUDIO
    TITLE "0:"
    INDEX 01 04:27:17
  TRACK 222 AUDIO
    TITLE "30:cjc024_6431"
    INDEX 01 04:27:58
  TRACK 223 AUDIO
    TITLE "0:"
    INDEX 01 04:30:23
  TRACK 224 AUDIO
    TITLE "31:cjc024_6432"
    INDEX 01 04:30:54
  TRACK 225 AUDIO
    TITLE "0:"
    INDEX 01 04:33:20
  TRACK 226 AUDIO
    TITLE "28:cjc024_6433"
    INDEX 01 04:34:17
  TRACK 227 AUDIO
    TITLE "0:"
    INDEX 01 04:35:32
  TRACK 228 AUDIO
    TITLE "29:cjc024_6434"
    INDEX 01 04:35:71
  TRACK 229 AUDIO
    TITLE "0:"
    INDEX 01 04:38:11
  TRACK 230 AUDIO
    TITLE "30:cjc024_6435"
    INDEX 01 04:38:48
  TRACK 231 AUDIO
    TITLE "0:"
    INDEX 01 04:40:57
  TRACK 232 AUDIO
    TITLE "31:cjc024_6436"
    INDEX 01 04:41:05
  TRACK 233 AUDIO
    TITLE "0:"
    INDEX 01 04:43:14
  TRACK 234 AUDIO
    TITLE "28:cjc024_6437"
    INDEX 01 04:44:13
  TRACK 235 AUDIO
    TITLE "0:"
    INDEX 01 04:45:31
  TRACK 236 AUDIO
    TITLE "29:cjc024_6438"
    INDEX 01 04:45:68
  TRACK 237 AUDIO
    TITLE "0:"
    INDEX 01 04:47:12
  TRACK 238 AUDIO
    TITLE "30:cjc024_6439"
    INDEX 01 04:47:49
  TRACK 239 AUDIO
    TITLE "0:"
    INDEX 01 04:49:46
  TRACK 240 AUDIO
    TITLE "31:cjc024_6440"
    INDEX 01 04:49:69
  TRACK 241 AUDIO
    TITLE "0:"
    INDEX 01 04:51:66
  TRACK 242 AUDIO
    TITLE "28:cjc024_6441"
    INDEX 01 04:52:66
  TRACK 243 AUDIO
    TITLE "0:"
    INDEX 01 04:54:18
  TRACK 244 AUDIO
    TITLE "29:cjc024_6442"
    INDEX 01 04:54:55
  TRACK 245 AUDIO
    TITLE "0:"
    INDEX 01 04:59:15
  TRACK 246 AUDIO
    TITLE "30:cjc024_6443"
    INDEX 01 04:59:54
  TRACK 247 AUDIO
    TITLE "0:"
    INDEX 01 05:03:60
  TRACK 248 AUDIO
    TITLE "31:cjc024_6444"
    INDEX 01 05:04:08
  TRACK 249 AUDIO
    TITLE "0:"
    INDEX 01 05:08:14
  TRACK 250 AUDIO
    TITLE "28:cjc024_6445"
    INDEX 01 05:09:15
  TRACK 251 AUDIO
    TITLE "0:"
    INDEX 01 05:10:23
  TRACK 252 AUDIO
    TITLE "29:cjc024_6446"
    INDEX 01 05:10:58
  TRACK 253 AUDIO
    TITLE "0:"
    INDEX 01 05:14:07
  TRACK 254 AUDIO
    TITLE "30:cjc024_6447"
    INDEX 01 05:14:46
  TRACK 255 AUDIO
    TITLE "0:"
    INDEX 01 05:16:41
  TRACK 256 AUDIO
    TITLE "31:cjc024_6448"
    INDEX 01 05:16:66
  TRACK 257 AUDIO
    TITLE "0:"
    INDEX 01 05:18:61
  TRACK 258 AUDIO
    TITLE "28:cjc024_6449"
    INDEX 01 05:19:61
  TRACK 259 AUDIO
    TITLE "0:"
    INDEX 01 05:20:74
  TRACK 260 AUDIO
    TITLE "29:cjc024_6450"
    INDEX 01 05:21:38
  TRACK 261 AUDIO
    TITLE "0:"
    INDEX 01 05:23:68
  TRACK 262 AUDIO
    TITLE "30:cjc024_6451"
    INDEX 01 05:24:38
  TRACK 263 AUDIO
    TITLE "0:"
    INDEX 01 05:26:67
  TRACK 264 AUDIO
    TITLE "31:cjc024_6452"
    INDEX 01 05:27:23
  TRACK 265 AUDIO
    TITLE "0:"
    INDEX 01 05:29:53
  TRACK 266 AUDIO
    TITLE "28:cjc024_6453"
    INDEX 01 05:30:53
  TRACK 267 AUDIO
    TITLE "0:"
    INDEX 01 05:32:01
  TRACK 268 AUDIO
    TITLE "29:cjc024_6454"
    INDEX 01 05:32:38
  TRACK 269 AUDIO
    TITLE "0:"
    INDEX 01 05:34:64
  TRACK 270 AUDIO
    TITLE "30:cjc024_6455"
    INDEX 01 05:35:28
  TRACK 271 AUDIO
    TITLE "0:"
    INDEX 01 05:37:43
  TRACK 272 AUDIO
    TITLE "31:cjc024_6456"
    INDEX 01 05:37:70
  TRACK 273 AUDIO
    TITLE "0:"
    INDEX 01 05:40:12
  TRACK 274 AUDIO
    TITLE "28:cjc024_6457"
    INDEX 01 05:41:13
  TRACK 275 AUDIO
    TITLE "0:"
    INDEX 01 05:42:27
  TRACK 276 AUDIO
    TITLE "29:cjc024_6458"
    INDEX 01 05:42:64
  TRACK 277 AUDIO
    TITLE "0:"
    INDEX 01 05:44:37
  TRACK 278 AUDIO
    TITLE "30:cjc024_6459"
    INDEX 01 05:45:01
  TRACK 279 AUDIO
    TITLE "0:"
    INDEX 01 05:47:02
  TRACK 280 AUDIO
    TITLE "31:cjc024_6460"
    INDEX 01 05:47:30
  TRACK 281 AUDIO
    TITLE "0:"
    INDEX 01 05:49:33
  TRACK 282 AUDIO
    TITLE "28:cjc024_6461"
    INDEX 01 05:50:30
  TRACK 283 AUDIO
    TITLE "0:"
    INDEX 01 05:51:39
  TRACK 284 AUDIO
    TITLE "29:cjc024_6462"
    INDEX 01 05:52:03
  TRACK 285 AUDIO
    TITLE "0:"
    INDEX 01 05:54:12
  TRACK 286 AUDIO
    TITLE "30:cjc024_6463"
    INDEX 01 05:54:47
  TRACK 287 AUDIO
    TITLE "0:"
    INDEX 01 05:56:52
  TRACK 288 AUDIO
    TITLE "31:cjc024_6464"
    INDEX 01 05:57:05
  TRACK 289 AUDIO
    TITLE "0:"
    INDEX 01 05:59:07
  TRACK 290 AUDIO
    TITLE "28:cjc024_6465"
    INDEX 01 06:00:07
  TRACK 291 AUDIO
    TITLE "0:"
    INDEX 01 06:01:14
  TRACK 292 AUDIO
    TITLE "29:cjc024_6466"
    INDEX 01 06:01:53
  TRACK 293 AUDIO
    TITLE "0:"
    INDEX 01 06:03:54
  TRACK 294 AUDIO
    TITLE "30:cjc024_6467"
    INDEX 01 06:04:14
  TRACK 295 AUDIO
    TITLE "0:"
    INDEX 01 06:05:69
  TRACK 296 AUDIO
    TITLE "31:cjc024_6468"
    INDEX 01 06:06:21
  TRACK 297 AUDIO
    TITLE "0:"
    INDEX 01 06:07:74
  TRACK 298 AUDIO
    TITLE "28:cjc024_6469"
    INDEX 01 06:09:00
  TRACK 299 AUDIO
    TITLE "0:"
    INDEX 01 06:10:15
  TRACK 300 AUDIO
    TITLE "29:cjc024_6470"
    INDEX 01 06:10:56
  TRACK 301 AUDIO
    TITLE "0:"
    INDEX 01 06:12:69
  TRACK 302 AUDIO
    TITLE "30:cjc024_6471"
    INDEX 01 06:13:31
  TRACK 303 AUDIO
    TITLE "0:"
    INDEX 01 06:15:06
  TRACK 304 AUDIO
    TITLE "31:cjc024_6472"
    INDEX 01 06:15:32
  TRACK 305 AUDIO
    TITLE "0:"
    INDEX 01 06:17:09
  TRACK 306 AUDIO
    TITLE "28:cjc024_6473"
    INDEX 01 06:18:13
  TRACK 307 AUDIO
    TITLE "0:"
    INDEX 01 06:19:34
  TRACK 308 AUDIO
    TITLE "29:cjc024_6474"
    INDEX 01 06:19:71
  TRACK 309 AUDIO
    TITLE "0:"
    INDEX 01 06:22:38
  TRACK 310 AUDIO
    TITLE "30:cjc024_6475"
    INDEX 01 06:23:02
  TRACK 311 AUDIO
    TITLE "0:"
    INDEX 01 06:25:36
  TRACK 312 AUDIO
    TITLE "31:cjc024_6476"
    INDEX 01 06:25:64
  TRACK 313 AUDIO
    TITLE "0:"
    INDEX 01 06:28:21
  TRACK 314 AUDIO
    TITLE "28:cjc024_6477"
    INDEX 01 06:29:20
  TRACK 315 AUDIO
    TITLE "0:"
    INDEX 01 06:30:30
  TRACK 316 AUDIO
    TITLE "29:cjc024_6478"
    INDEX 01 06:30:71
  TRACK 317 AUDIO
    TITLE "0:"
    INDEX 01 06:32:28
  TRACK 318 AUDIO
    TITLE "30:cjc024_6479"
    INDEX 01 06:32:68
  TRACK 319 AUDIO
    TITLE "0:"
    INDEX 01 06:34:53
  TRACK 320 AUDIO
    TITLE "31:cjc024_6480"
    INDEX 01 06:35:03
  TRACK 321 AUDIO
    TITLE "0:"
    INDEX 01 06:36:65
  TRACK 322 AUDIO
    TITLE "28:cjc024_6481"
    INDEX 01 06:37:67
  TRACK 323 AUDIO
    TITLE "0:"
    INDEX 01 06:39:05
  TRACK 324 AUDIO
    TITLE "29:cjc024_6482"
    INDEX 01 06:39:44
  TRACK 325 AUDIO
    TITLE "0:"
    INDEX 01 06:42:66
  TRACK 326 AUDIO
    TITLE "30:cjc024_6483"
    INDEX 01 06:43:34
  TRACK 327 AUDIO
    TITLE "0:"
    INDEX 01 06:46:29
  TRACK 328 AUDIO
    TITLE "31:cjc024_6484"
    INDEX 01 06:46:58
  TRACK 329 AUDIO
    TITLE "0:"
    INDEX 01 06:49:50
  TRACK 330 AUDIO
    TITLE "28:cjc024_6485"
    INDEX 01 06:50:56
  TRACK 331 AUDIO
    TITLE "0:"
    INDEX 01 06:52:08
  TRACK 332 AUDIO
    TITLE "29:cjc024_6486"
    INDEX 01 06:52:43
  TRACK 333 AUDIO
    TITLE "0:"
    INDEX 01 06:54:30
  TRACK 334 AUDIO
    TITLE "30:cjc024_6487"
    INDEX 01 06:54:69
  TRACK 335 AUDIO
    TITLE "0:"
    INDEX 01 06:57:21
  TRACK 336 AUDIO
    TITLE "31:cjc024_6488"
    INDEX 01 06:57:42
  TRACK 337 AUDIO
    TITLE "0:"
    INDEX 01 06:59:68
  TRACK 338 AUDIO
    TITLE "28:cjc024_6489"
    INDEX 01 07:00:68
  TRACK 339 AUDIO
    TITLE "0:"
    INDEX 01 07:02:02
  TRACK 340 AUDIO
    TITLE "29:cjc024_6490"
    INDEX 01 07:02:45
  TRACK 341 AUDIO
    TITLE "0:"
    INDEX 01 07:04:70
  TRACK 342 AUDIO
    TITLE "30:cjc024_6491"
    INDEX 01 07:05:30
  TRACK 343 AUDIO
    TITLE "0:"
    INDEX 01 07:07:31
  TRACK 344 AUDIO
    TITLE "31:cjc024_6492"
    INDEX 01 07:07:52
  TRACK 345 AUDIO
    TITLE "0:"
    INDEX 01 07:09:51
  TRACK 346 AUDIO
    TITLE "28:cjc024_6493"
    INDEX 01 07:10:53
  TRACK 347 AUDIO
    TITLE "0:"
    INDEX 01 07:11:64
  TRACK 348 AUDIO
    TITLE "29:cjc024_6494"
    INDEX 01 07:12:28
  TRACK 349 AUDIO
    TITLE "0:"
    INDEX 01 07:14:72
  TRACK 350 AUDIO
    TITLE "30:cjc024_6495"
    INDEX 01 07:15:36
  TRACK 351 AUDIO
    TITLE "0:"
    INDEX 01 07:17:51
  TRACK 352 AUDIO
    TITLE "31:cjc024_6496"
    INDEX 01 07:18:01
  TRACK 353 AUDIO
    TITLE "0:"
    INDEX 01 07:20:16
  TRACK 354 AUDIO
    TITLE "28:cjc024_6497"
    INDEX 01 07:21:15
  TRACK 355 AUDIO
    TITLE "0:"
    INDEX 01 07:22:28
  TRACK 356 AUDIO
    TITLE "29:cjc024_6498"
    INDEX 01 07:22:66
  TRACK 357 AUDIO
    TITLE "0:"
    INDEX 01 07:26:16
  TRACK 358 AUDIO
    TITLE "30:cjc024_6499"
    INDEX 01 07:26:54
  TRACK 359 AUDIO
    TITLE "0:"
    INDEX 01 07:29:24
  TRACK 360 AUDIO
    TITLE "31:cjc024_6500"
    INDEX 01 07:29:46
  TRACK 361 AUDIO
    TITLE "0:"
    INDEX 01 07:32:19
  TRACK 362 AUDIO
    TITLE "28:cjc024_6501"
    INDEX 01 07:33:18
  TRACK 363 AUDIO
    TITLE "0:"
    INDEX 01 07:34:45
  TRACK 364 AUDIO
    TITLE "29:cjc024_6502"
    INDEX 01 07:35:13
  TRACK 365 AUDIO
    TITLE "0:"
    INDEX 01 07:37:10
  TRACK 366 AUDIO
    TITLE "30:cjc024_6503"
    INDEX 01 07:37:47
  TRACK 367 AUDIO
    TITLE "0:"
    INDEX 01 07:40:03
  TRACK 368 AUDIO
    TITLE "31:cjc024_6504"
    INDEX 01 07:40:24
  TRACK 369 AUDIO
    TITLE "0:"
    INDEX 01 07:42:54
  TRACK 370 AUDIO
    TITLE "28:cjc024_6505"
    INDEX 01 07:43:52
  TRACK 371 AUDIO
    TITLE "0:"
    INDEX 01 07:44:51
  TRACK 372 AUDIO
    TITLE "29:cjc024_6506"
    INDEX 01 07:45:16
  TRACK 373 AUDIO
    TITLE "0:"
    INDEX 01 07:47:38
  TRACK 374 AUDIO
    TITLE "30:cjc024_6507"
    INDEX 01 07:48:00
  TRACK 375 AUDIO
    TITLE "0:"
    INDEX 01 07:50:38
  TRACK 376 AUDIO
    TITLE "31:cjc024_6508"
    INDEX 01 07:50:70
  TRACK 377 AUDIO
    TITLE "0:"
    INDEX 01 07:53:33
  TRACK 378 AUDIO
    TITLE "28:cjc024_6509"
    INDEX 01 07:54:36
  TRACK 379 AUDIO
    TITLE "0:"
    INDEX 01 07:55:45
  TRACK 380 AUDIO
    TITLE "29:cjc024_6510"
    INDEX 01 07:56:10
  TRACK 381 AUDIO
    TITLE "0:"
    INDEX 01 07:57:58
  TRACK 382 AUDIO
    TITLE "30:cjc024_6511"
    INDEX 01 07:58:20
  TRACK 383 AUDIO
    TITLE "0:"
    INDEX 01 08:00:00
  TRACK 384 AUDIO
    TITLE "31:cjc024_6512"
    INDEX 01 08:00:23
  TRACK 385 AUDIO
    TITLE "0:"
    INDEX 01 08:02:00
  TRACK 386 AUDIO
    TITLE "28:cjc024_6513"
    INDEX 01 08:03:02
  TRACK 387 AUDIO
    TITLE "0:"
    INDEX 01 08:04:09
  TRACK 388 AUDIO
    TITLE "29:cjc024_6514"
    INDEX 01 08:04:46
  TRACK 389 AUDIO
    TITLE "0:"
    INDEX 01 08:07:07
  TRACK 390 AUDIO
    TITLE "30:cjc024_6515"
    INDEX 01 08:07:47
  TRACK 391 AUDIO
    TITLE "0:"
    INDEX 01 08:10:16
  TRACK 392 AUDIO
    TITLE "31:cjc024_6516"
    INDEX 01 08:10:37
  TRACK 393 AUDIO
    TITLE "0:"
    INDEX 01 08:13:06
  TRACK 394 AUDIO
    TITLE "28:cjc024_6517"
    INDEX 01 08:14:06
  TRACK 395 AUDIO
    TITLE "0:"
    INDEX 01 08:15:27
  TRACK 396 AUDIO
    TITLE "29:cjc024_6518"
    INDEX 01 08:15:62
  TRACK 397 AUDIO
    TITLE "0:"
    INDEX 01 08:17:67
  TRACK 398 AUDIO
    TITLE "30:cjc024_6519"
    INDEX 01 08:18:29
  TRACK 399 AUDIO
    TITLE "0:"
    INDEX 01 08:20:34
  TRACK 400 AUDIO
    TITLE "31:cjc024_6520"
    INDEX 01 08:20:57
  TRACK 401 AUDIO
    TITLE "0:"
    INDEX 01 08:22:62
  TRACK 402 AUDIO
    TITLE "28:cjc024_6521"
    INDEX 01 08:23:63
  TRACK 403 AUDIO
    TITLE "0:"
    INDEX 01 08:24:71
  TRACK 404 AUDIO
    TITLE "29:cjc024_6522"
    INDEX 01 08:25:33
  TRACK 405 AUDIO
    TITLE "0:"
    INDEX 01 08:27:47
  TRACK 406 AUDIO
    TITLE "30:cjc024_6523"
    INDEX 01 08:28:12
  TRACK 407 AUDIO
    TITLE "0:"
    INDEX 01 08:29:60
  TRACK 408 AUDIO
    TITLE "31:cjc024_6524"
    INDEX 01 08:30:10
  TRACK 409 AUDIO
    TITLE "0:"
    INDEX 01 08:31:63
  TRACK 410 AUDIO
    TITLE "28:cjc024_6525"
    INDEX 01 08:32:60
  TRACK 411 AUDIO
    TITLE "0:"
    INDEX 01 08:34:20
  TRACK 412 AUDIO
    TITLE "29:cjc024_6526"
    INDEX 01 08:34:59
  TRACK 413 AUDIO
    TITLE "0:"
    INDEX 01 08:36:54
  TRACK 414 AUDIO
    TITLE "30:cjc024_6527"
    INDEX 01 08:37:18
  TRACK 415 AUDIO
    TITLE "0:"
    INDEX 01 08:39:07
  TRACK 416 AUDIO
    TITLE "31:cjc024_6528"
    INDEX 01 08:39:39
  TRACK 417 AUDIO
    TITLE "0:"
    INDEX 01 08:41:26
  TRACK 418 AUDIO
    TITLE "28:cjc024_6529"
    INDEX 01 08:42:25
  TRACK 419 AUDIO
    TITLE "0:"
    INDEX 01 08:43:39
  TRACK 420 AUDIO
    TITLE "29:cjc024_6530"
    INDEX 01 08:44:05
  TRACK 421 AUDIO
    TITLE "0:"
    INDEX 01 08:45:39
  TRACK 422 AUDIO
    TITLE "30:cjc024_6531"
    INDEX 01 08:46:06
  TRACK 423 AUDIO
    TITLE "0:"
    INDEX 01 08:47:46
  TRACK 424 AUDIO
    TITLE "31:cjc024_6532"
    INDEX 01 08:47:74
  TRACK 425 AUDIO
    TITLE "0:"
    INDEX 01 08:49:39
  TRACK 426 AUDIO
    TITLE "28:cjc024_6533"
    INDEX 01 08:50:41
  TRACK 427 AUDIO
    TITLE "0:"
    INDEX 01 08:51:54
  TRACK 428 AUDIO
    TITLE "29:cjc024_6534"
    INDEX 01 08:52:18
  TRACK 429 AUDIO
    TITLE "0:"
    INDEX 01 08:55:06
  TRACK 430 AUDIO
    TITLE "30:cjc024_6535"
    INDEX 01 08:55:48
  TRACK 431 AUDIO
    TITLE "0:"
    INDEX 01 08:57:58
  TRACK 432 AUDIO
    TITLE "31:cjc024_6536"
    INDEX 01 08:58:11
  TRACK 433 AUDIO
    TITLE "0:"
    INDEX 01 09:00:19
  TRACK 434 AUDIO
    TITLE "28:cjc024_6537"
    INDEX 01 09:01:23
  TRACK 435 AUDIO
    TITLE "0:"
    INDEX 01 09:02:42
  TRACK 436 AUDIO
    TITLE "29:cjc024_6538"
    INDEX 01 09:03:04
  TRACK 437 AUDIO
    TITLE "0:"
    INDEX 01 09:05:69
  TRACK 438 AUDIO
    TITLE "30:cjc024_6539"
    INDEX 01 09:06:34
  TRACK 439 AUDIO
    TITLE "0:"
    INDEX 01 09:08:54
  TRACK 440 AUDIO
    TITLE "31:cjc024_6540"
    INDEX 01 09:09:09
  TRACK 441 AUDIO
    TITLE "0:"
    INDEX 01 09:11:29
  TRACK 442 AUDIO
    TITLE "28:cjc024_6541"
    INDEX 01 09:12:30
  TRACK 443 AUDIO
    TITLE "0:"
    INDEX 01 09:13:57
  TRACK 444 AUDIO
    TITLE "29:cjc024_6542"
    INDEX 01 09:14:19
  TRACK 445 AUDIO
    TITLE "0:"
    INDEX 01 09:15:56
  TRACK 446 AUDIO
    TITLE "30:cjc024_6543"
    INDEX 01 09:16:18
  TRACK 447 AUDIO
    TITLE "0:"
    INDEX 01 09:17:61
  TRACK 448 AUDIO
    TITLE "31:cjc024_6544"
    INDEX 01 09:18:27
  TRACK 449 AUDIO
    TITLE "0:"
    INDEX 01 09:19:74
  TRACK 450 AUDIO
    TITLE "28:cjc024_6545"
    INDEX 01 09:21:16
  TRACK 451 AUDIO
    TITLE "0:"
    INDEX 01 09:22:29
  TRACK 452 AUDIO
    TITLE "29:cjc024_6546"
    INDEX 01 09:22:66
  TRACK 453 AUDIO
    TITLE "0:"
    INDEX 01 09:24:73
  TRACK 454 AUDIO
    TITLE "30:cjc024_6547"
    INDEX 01 09:25:33
  TRACK 455 AUDIO
    TITLE "0:"
    INDEX 01 09:27:03
  TRACK 456 AUDIO
    TITLE "31:cjc024_6548"
    INDEX 01 09:27:28
  TRACK 457 AUDIO
    TITLE "0:"
    INDEX 01 09:28:71
  TRACK 458 AUDIO
    TITLE "28:cjc024_6549"
    INDEX 01 09:29:74
  TRACK 459 AUDIO
    TITLE "0:"
    INDEX 01 09:31:12
  TRACK 460 AUDIO
    TITLE "29:cjc024_6550"
    INDEX 01 09:31:49
  TRACK 461 AUDIO
    TITLE "0:"
    INDEX 01 09:33:15
  TRACK 462 AUDIO
    TITLE "30:cjc024_6551"
    INDEX 01 09:33:54
  TRACK 463 AUDIO
    TITLE "0:"
    INDEX 01 09:35:51
  TRACK 464 AUDIO
    TITLE "31:cjc024_6552"
    INDEX 01 09:36:01
  TRACK 465 AUDIO
    TITLE "0:"
    INDEX 01 09:37:73
  TRACK 466 AUDIO
    TITLE "28:cjc024_6553"
    INDEX 01 09:39:00
  TRACK 467 AUDIO
    TITLE "0:"
    INDEX 01 09:40:15
  TRACK 468 AUDIO
    TITLE "29:cjc024_6554"
    INDEX 01 09:40:56
  TRACK 469 AUDIO
    TITLE "0:"
    INDEX 01 09:43:23
  TRACK 470 AUDIO
    TITLE "30:cjc024_6555"
    INDEX 01 09:43:60
  TRACK 471 AUDIO
    TITLE "0:"
    INDEX 01 09:46:04
  TRACK 472 AUDIO
    TITLE "31:cjc024_6556"
    INDEX 01 09:46:27
  TRACK 473 AUDIO
    TITLE "0:"
    INDEX 01 09:48:46
  TRACK 474 AUDIO
    TITLE "28:cjc024_6557"
    INDEX 01 09:49:45
  TRACK 475 AUDIO
    TITLE "0:"
    INDEX 01 09:50:51
  TRACK 476 AUDIO
    TITLE "29:cjc024_6558"
    INDEX 01 09:51:23
  TRACK 477 AUDIO
    TITLE "0:"
    INDEX 01 09:53:18
  TRACK 478 AUDIO
    TITLE "30:cjc024_6559"
    INDEX 01 09:53:57
  TRACK 479 AUDIO
    TITLE "0:"
    INDEX 01 09:55:28
  TRACK 480 AUDIO
    TITLE "31:cjc024_6560"
    INDEX 01 09:55:58
  TRACK 481 AUDIO
    TITLE "0:"
    INDEX 01 09:57:29
  TRACK 482 AUDIO
    TITLE "28:cjc024_6561"
    INDEX 01 09:58:32
  TRACK 483 AUDIO
    TITLE "0:"
    INDEX 01 09:59:55
  TRACK 484 AUDIO
    TITLE "29:cjc024_6562"
    INDEX 01 10:00:27
  TRACK 485 AUDIO
    TITLE "0:"
    INDEX 01 10:02:09
  TRACK 486 AUDIO
    TITLE "30:cjc024_6563"
    INDEX 01 10:02:40
  TRACK 487 AUDIO
    TITLE "0:"
    INDEX 01 10:04:33
  TRACK 488 AUDIO
    TITLE "31:cjc024_6564"
    INDEX 01 10:04:59
  TRACK 489 AUDIO
    TITLE "0:"
    INDEX 01 10:06:54
  TRACK 490 AUDIO
    TITLE "28:cjc024_6565"
    INDEX 01 10:07:53
  TRACK 491 AUDIO
    TITLE "0:"
    INDEX 01 10:09:15
  TRACK 492 AUDIO
    TITLE "29:cjc024_6566"
    INDEX 01 10:09:64
  TRACK 493 AUDIO
    TITLE "0:"
    INDEX 01 10:11:33
  TRACK 494 AUDIO
    TITLE "30:cjc024_6567"
    INDEX 01 10:11:74
  TRACK 495 AUDIO
    TITLE "0:"
    INDEX 01 10:13:67
  TRACK 496 AUDIO
    TITLE "31:cjc024_6568"
    INDEX 01 10:14:24
  TRACK 497 AUDIO
    TITLE "0:"
    INDEX 01 10:16:17
  TRACK 498 AUDIO
    TITLE "28:cjc024_6569"
    INDEX 01 10:17:24
  TRACK 499 AUDIO
    TITLE "0:"
    INDEX 01 10:18:39
  TRACK 500 AUDIO
    TITLE "29:cjc024_6570"
    INDEX 01 10:19:11
  TRACK 501 AUDIO
    TITLE "0:"
    INDEX 01 10:21:33
  TRACK 502 AUDIO
    TITLE "30:cjc024_6571"
    INDEX 01 10:21:73
  TRACK 503 AUDIO
    TITLE "0:"
    INDEX 01 10:24:04
  TRACK 504 AUDIO
    TITLE "31:cjc024_6572"
    INDEX 01 10:24:28
  TRACK 505 AUDIO
    TITLE "0:"
    INDEX 01 10:26:39
  TRACK 506 AUDIO
    TITLE "28:cjc024_6573"
    INDEX 01 10:27:36
  TRACK 507 AUDIO
    TITLE "0:"
    INDEX 01 10:28:51
  TRACK 508 AUDIO
    TITLE "29:cjc024_6574"
    INDEX 01 10:29:15
  TRACK 509 AUDIO
    TITLE "0:"
    INDEX 01 10:30:64
  TRACK 510 AUDIO
    TITLE "30:cjc024_6575"
    INDEX 01 10:31:22
  TRACK 511 AUDIO
    TITLE "0:"
    INDEX 01 10:33:05
  TRACK 512 AUDIO
    TITLE "31:cjc024_6576"
    INDEX 01 10:33:33
  TRACK 513 AUDIO
    TITLE "0:"
    INDEX 01 10:35:14
  TRACK 514 AUDIO
    TITLE "28:cjc024_6577"
    INDEX 01 10:36:12
  TRACK 515 AUDIO
    TITLE "0:"
    INDEX 01 10:37:17
  TRACK 516 AUDIO
    TITLE "29:cjc024_6578"
    INDEX 01 10:37:52
  TRACK 517 AUDIO
    TITLE "0:"
    INDEX 01 10:39:00
  TRACK 518 AUDIO
    TITLE "30:cjc024_6579"
    INDEX 01 10:39:35
  TRACK 519 AUDIO
    TITLE "0:"
    INDEX 01 10:41:05
  TRACK 520 AUDIO
    TITLE "31:cjc024_6580"
    INDEX 01 10:41:30
  TRACK 521 AUDIO
    TITLE "0:"
    INDEX 01 10:43:02
  TRACK 522 AUDIO
    TITLE "28:cjc024_6581"
    INDEX 01 10:43:74
  TRACK 523 AUDIO
    TITLE "0:"
    INDEX 01 10:45:22
  TRACK 524 AUDIO
    TITLE "29:cjc024_6582"
    INDEX 01 10:45:61
  TRACK 525 AUDIO
    TITLE "0:"
    INDEX 01 10:48:23
  TRACK 526 AUDIO
    TITLE "30:cjc024_6583"
    INDEX 01 10:48:60
  TRACK 527 AUDIO
    TITLE "0:"
    INDEX 01 10:51:52
  TRACK 528 AUDIO
    TITLE "31:cjc024_6584"
    INDEX 01 10:52:03
  TRACK 529 AUDIO
    TITLE "0:"
    INDEX 01 10:54:68
  TRACK 530 AUDIO
    TITLE "28:cjc024_6585"
    INDEX 01 10:55:70
  TRACK 531 AUDIO
    TITLE "0:"
    INDEX 01 10:57:27
  TRACK 532 AUDIO
    TITLE "29:cjc024_6586"
    INDEX 01 10:57:70
  TRACK 533 AUDIO
    TITLE "0:"
    INDEX 01 10:59:56
  TRACK 534 AUDIO
    TITLE "30:cjc024_6587"
    INDEX 01 11:00:16
  TRACK 535 AUDIO
    TITLE "0:"
    INDEX 01 11:02:40
  TRACK 536 AUDIO
    TITLE "31:cjc024_6588"
    INDEX 01 11:02:68
  TRACK 537 AUDIO
    TITLE "0:"
    INDEX 01 11:05:15
  TRACK 538 AUDIO
    TITLE "28:cjc024_6589"
    INDEX 01 11:06:17
  TRACK 539 AUDIO
    TITLE "0:"
    INDEX 01 11:07:34
  TRACK 540 AUDIO
    TITLE "29:cjc024_6590"
    INDEX 01 11:08:06
  TRACK 541 AUDIO
    TITLE "0:"
    INDEX 01 11:09:50
  TRACK 542 AUDIO
    TITLE "30:cjc024_6591"
    INDEX 01 11:10:18
  TRACK 543 AUDIO
    TITLE "0:"
    INDEX 01 11:12:00
  TRACK 544 AUDIO
    TITLE "31:cjc024_6592"
    INDEX 01 11:12:33
  TRACK 545 AUDIO
    TITLE "0:"
    INDEX 01 11:14:12
  TRACK 546 AUDIO
    TITLE "28:cjc024_6593"
    INDEX 01 11:15:14
  TRACK 547 AUDIO
    TITLE "0:"
    INDEX 01 11:16:33
  TRACK 548 AUDIO
    TITLE "29:cjc024_6594"
    INDEX 01 11:17:01
  TRACK 549 AUDIO
    TITLE "0:"
    INDEX 01 11:18:73
  TRACK 550 AUDIO
    TITLE "30:cjc024_6595"
    INDEX 01 11:19:37
  TRACK 551 AUDIO
    TITLE "0:"
    INDEX 01 11:21:45
  TRACK 552 AUDIO
    TITLE "31:cjc024_6596"
    INDEX 01 11:21:71
  TRACK 553 AUDIO
    TITLE "0:"
    INDEX 01 11:24:11
  TRACK 554 AUDIO
    TITLE "28:cjc024_6597"
    INDEX 01 11:25:18
  TRACK 555 AUDIO
    TITLE "0:"
    INDEX 01 11:26:23
  TRACK 556 AUDIO
    TITLE "29:cjc024_6598"
    INDEX 01 11:26:60
  TRACK 557 AUDIO
    TITLE "0:"
    INDEX 01 11:29:65
  TRACK 558 AUDIO
    TITLE "30:cjc024_6599"
    INDEX 01 11:30:27
  TRACK 559 AUDIO
    TITLE "0:"
    INDEX 01 11:32:45
  TRACK 560 AUDIO
    TITLE "31:cjc024_6600"
    INDEX 01 11:32:69
  TRACK 561 AUDIO
    TITLE "0:"
    INDEX 01 11:35:12
  TRACK 562 AUDIO
    TITLE "28:cjc024_6601"
    INDEX 01 11:36:14
  TRACK 563 AUDIO
    TITLE "0:"
    INDEX 01 11:37:35
  TRACK 564 AUDIO
    TITLE "29:cjc024_6602"
    INDEX 01 11:38:01
  TRACK 565 AUDIO
    TITLE "0:"
    INDEX 01 11:39:47
  TRACK 566 AUDIO
    TITLE "30:cjc024_6603"
    INDEX 01 11:40:12
  TRACK 567 AUDIO
    TITLE "0:"
    INDEX 01 11:41:56
  TRACK 568 AUDIO
    TITLE "31:cjc024_6604"
    INDEX 01 11:42:16
  TRACK 569 AUDIO
    TITLE "0:"
    INDEX 01 11:43:63
  TRACK 570 AUDIO
    TITLE "28:cjc024_6605"
    INDEX 01 11:44:70
  TRACK 571 AUDIO
    TITLE "0:"
    INDEX 01 11:46:12
  TRACK 572 AUDIO
    TITLE "29:cjc024_6606"
    INDEX 01 11:46:51
  TRACK 573 AUDIO
    TITLE "0:"
    INDEX 01 11:49:46
  TRACK 574 AUDIO
    TITLE "30:cjc024_6607"
    INDEX 01 11:50:18
  TRACK 575 AUDIO
    TITLE "0:"
    INDEX 01 11:53:00
  TRACK 576 AUDIO
    TITLE "31:cjc024_6608"
    INDEX 01 11:53:36
  TRACK 577 AUDIO
    TITLE "0:"
    INDEX 01 11:56:18
  TRACK 578 AUDIO
    TITLE "28:cjc024_6609"
    INDEX 01 11:57:20
  TRACK 579 AUDIO
    TITLE "0:"
    INDEX 01 11:58:45
  TRACK 580 AUDIO
    TITLE "29:cjc024_6610"
    INDEX 01 11:59:05
  TRACK 581 AUDIO
    TITLE "0:"
    INDEX 01 12:01:20
  TRACK 582 AUDIO
    TITLE "30:cjc024_6611"
    INDEX 01 12:01:61
  TRACK 583 AUDIO
    TITLE "0:"
    INDEX 01 12:03:54
  TRACK 584 AUDIO
    TITLE "31:cjc024_6612"
    INDEX 01 12:04:04
  TRACK 585 AUDIO
    TITLE "0:"
    INDEX 01 12:05:72
  TRACK 586 AUDIO
    TITLE "28:cjc024_6613"
    INDEX 01 12:07:03
  TRACK 587 AUDIO
    TITLE "0:"
    INDEX 01 12:08:02
  TRACK 588 AUDIO
    TITLE "29:cjc024_6614"
    INDEX 01 12:08:41
  TRACK 589 AUDIO
    TITLE "0:"
    INDEX 01 12:11:30
  TRACK 590 AUDIO
    TITLE "30:cjc024_6615"
    INDEX 01 12:11:65
  TRACK 591 AUDIO
    TITLE "0:"
    INDEX 01 12:13:56
  TRACK 592 AUDIO
    TITLE "31:cjc024_6616"
    INDEX 01 12:14:08
  TRACK 593 AUDIO
    TITLE "0:"
    INDEX 01 12:16:00
  TRACK 594 AUDIO
    TITLE "28:cjc024_6617"
    INDEX 01 12:17:03
  TRACK 595 AUDIO
    TITLE "0:"
    INDEX 01 12:18:40
  TRACK 596 AUDIO
    TITLE "29:cjc024_6618"
    INDEX 01 12:19:04
  TRACK 597 AUDIO
    TITLE "0:"
    INDEX 01 12:20:70
  TRACK 598 AUDIO
    TITLE "30:cjc024_6619"
    INDEX 01 12:21:42
  TRACK 599 AUDIO
    TITLE "0:"
    INDEX 01 12:23:49
  TRACK 600 AUDIO
    TITLE "31:cjc024_6620"
    INDEX 01 12:24:09
  TRACK 601 AUDIO
    TITLE "0:"
    INDEX 01 12:26:16
  TRACK 602 AUDIO
    TITLE "28:cjc024_6621"
    INDEX 01 12:27:15
  TRACK 603 AUDIO
    TITLE "0:"
    INDEX 01 12:28:44
  TRACK 604 AUDIO
    TITLE "29:cjc024_6622"
    INDEX 01 12:29:06
  TRACK 605 AUDIO
    TITLE "0:"
    INDEX 01 12:30:54
  TRACK 606 AUDIO
    TITLE "30:cjc024_6623"
    INDEX 01 12:31:17
  TRACK 607 AUDIO
    TITLE "0:"
    INDEX 01 12:33:02
  TRACK 608 AUDIO
    TITLE "31:cjc024_6624"
    INDEX 01 12:33:25
  TRACK 609 AUDIO
    TITLE "0:"
    INDEX 01 12:35:13
  TRACK 610 AUDIO
    TITLE "28:cjc024_6625"
    INDEX 01 12:36:10
  TRACK 611 AUDIO
    TITLE "0:"
    INDEX 01 12:37:37
  TRACK 612 AUDIO
    TITLE "29:cjc024_6626"
    INDEX 01 12:37:72
  TRACK 613 AUDIO
    TITLE "0:"
    INDEX 01 12:39:42
  TRACK 614 AUDIO
    TITLE "30:cjc024_6627"
    INDEX 01 12:40:06
  TRACK 615 AUDIO
    TITLE "0:"
    INDEX 01 12:41:68
  TRACK 616 AUDIO
    TITLE "31:cjc024_6628"
    INDEX 01 12:42:18
  TRACK 617 AUDIO
    TITLE "0:"
    INDEX 01 12:44:10
  TRACK 618 AUDIO
    TITLE "28:cjc024_6629"
    INDEX 01 12:45:07
  TRACK 619 AUDIO
    TITLE "0:"
    INDEX 01 12:46:28
  TRACK 620 AUDIO
    TITLE "29:cjc024_6630"
    INDEX 01 12:46:67
  TRACK 621 AUDIO
    TITLE "0:"
    INDEX 01 12:51:10
  TRACK 622 AUDIO
    TITLE "30:cjc024_6631"
    INDEX 01 12:51:47
  TRACK 623 AUDIO
    TITLE "0:"
    INDEX 01 12:54:71
  TRACK 624 AUDIO
    TITLE "31:cjc024_6632"
    INDEX 01 12:55:17
  TRACK 625 AUDIO
    TITLE "0:"
    INDEX 01 12:58:41
  TRACK 626 AUDIO
    TITLE "28:cjc024_6633"
    INDEX 01 12:59:40
  TRACK 627 AUDIO
    TITLE "0:"
    INDEX 01 13:00:65
  TRACK 628 AUDIO
    TITLE "29:cjc024_6634"
    INDEX 01 13:01:30
  TRACK 629 AUDIO
    TITLE "0:"
    INDEX 01 13:03:07
  TRACK 630 AUDIO
    TITLE "30:cjc024_6635"
    INDEX 01 13:03:44
  TRACK 631 AUDIO
    TITLE "0:"
    INDEX 01 13:05:29
  TRACK 632 AUDIO
    TITLE "31:cjc024_6636"
    INDEX 01 13:05:59
  TRACK 633 AUDIO
    TITLE "0:"
    INDEX 01 13:07:44
  TRACK 634 AUDIO
    TITLE "28:cjc024_6637"
    INDEX 01 13:08:43
  TRACK 635 AUDIO
    TITLE "0:"
    INDEX 01 13:09:57
  TRACK 636 AUDIO
    TITLE "29:cjc024_6638"
    INDEX 01 13:10:21
  TRACK 637 AUDIO
    TITLE "0:"
    INDEX 01 13:11:71
  TRACK 638 AUDIO
    TITLE "30:cjc024_6639"
    INDEX 01 13:12:33
  TRACK 639 AUDIO
    TITLE "0:"
    INDEX 01 13:14:20
  TRACK 640 AUDIO
    TITLE "31:cjc024_6640"
    INDEX 01 13:14:48
  TRACK 641 AUDIO
    TITLE "0:"
    INDEX 01 13:16:33
  TRACK 642 AUDIO
    TITLE "28:cjc024_6641"
    INDEX 01 13:17:33
  TRACK 643 AUDIO
    TITLE "0:"
    INDEX 01 13:18:52
  TRACK 644 AUDIO
    TITLE "29:cjc024_6642"
    INDEX 01 13:19:24
  TRACK 645 AUDIO
    TITLE "0:"
    INDEX 01 13:22:08
  TRACK 646 AUDIO
    TITLE "30:cjc024_6643"
    INDEX 01 13:22:53
  TRACK 647 AUDIO
    TITLE "0:"
    INDEX 01 13:26:12
  TRACK 648 AUDIO
    TITLE "31:cjc024_6644"
    INDEX 01 13:26:41
  TRACK 649 AUDIO
    TITLE "0:"
    INDEX 01 13:30:00
  TRACK 650 AUDIO
    TITLE "28:cjc024_6645"
    INDEX 01 13:30:72
  TRACK 651 AUDIO
    TITLE "0:"
    INDEX 01 13:32:01
  TRACK 652 AUDIO
    TITLE "29:cjc024_6646"
    INDEX 01 13:32:48
  TRACK 653 AUDIO
    TITLE "0:"
    INDEX 01 13:34:49
  TRACK 654 AUDIO
    TITLE "30:cjc024_6647"
    INDEX 01 13:35:09
  TRACK 655 AUDIO
    TITLE "0:"
    INDEX 01 13:36:65
  TRACK 656 AUDIO
    TITLE "31:cjc024_6648"
    INDEX 01 13:37:14
  TRACK 657 AUDIO
    TITLE "0:"
    INDEX 01 13:38:72
  TRACK 658 AUDIO
    TITLE "28:cjc024_6649"
    INDEX 01 13:39:67
  TRACK 659 AUDIO
    TITLE "0:"
    INDEX 01 13:41:11
  TRACK 660 AUDIO
    TITLE "29:cjc024_6650"
    INDEX 01 13:41:57
  TRACK 661 AUDIO
    TITLE "0:"
    INDEX 01 13:44:33
  TRACK 662 AUDIO
    TITLE "30:cjc024_6651"
    INDEX 01 13:44:72
  TRACK 663 AUDIO
    TITLE "0:"
    INDEX 01 13:47:39
  TRACK 664 AUDIO
    TITLE "31:cjc024_6652"
    INDEX 01 13:47:67
  TRACK 665 AUDIO
    TITLE "0:"
    INDEX 01 13:50:34
  TRACK 666 AUDIO
    TITLE "28:cjc024_6653"
    INDEX 01 13:51:33
  TRACK 667 AUDIO
    TITLE "0:"
    INDEX 01 13:52:52
  TRACK 668 AUDIO
    TITLE "29:cjc024_6654"
    INDEX 01 13:53:15
  TRACK 669 AUDIO
    TITLE "0:"
    INDEX 01 13:55:49
  TRACK 670 AUDIO
    TITLE "30:cjc024_6655"
    INDEX 01 13:56:13
  TRACK 671 AUDIO
    TITLE "0:"
    INDEX 01 13:58:24
  TRACK 672 AUDIO
    TITLE "31:cjc024_6656"
    INDEX 01 13:58:47
  TRACK 673 AUDIO
    TITLE "0:"
    INDEX 01 14:00:62
  TRACK 674 AUDIO
    TITLE "28:cjc024_6657"
    INDEX 01 14:01:61
  TRACK 675 AUDIO
    TITLE "0:"
    INDEX 01 14:02:65
  TRACK 676 AUDIO
    TITLE "29:cjc024_6658"
    INDEX 01 14:03:35
  TRACK 677 AUDIO
    TITLE "0:"
    INDEX 01 14:05:39
  TRACK 678 AUDIO
    TITLE "30:cjc024_6659"
    INDEX 01 14:06:06
  TRACK 679 AUDIO
    TITLE "0:"
    INDEX 01 14:07:54
  TRACK 680 AUDIO
    TITLE "31:cjc024_6660"
    INDEX 01 14:08:04
  TRACK 681 AUDIO
    TITLE "0:"
    INDEX 01 14:09:53
  TRACK 682 AUDIO
    TITLE "28:cjc024_6661"
    INDEX 01 14:10:52
  TRACK 683 AUDIO
    TITLE "0:"
    INDEX 01 14:11:73
  TRACK 684 AUDIO
    TITLE "29:cjc024_6662"
    INDEX 01 14:12:36
  TRACK 685 AUDIO
    TITLE "0:"
    INDEX 01 14:14:46
  TRACK 686 AUDIO
    TITLE "30:cjc024_6663"
    INDEX 01 14:15:10
  TRACK 687 AUDIO
    TITLE "0:"
    INDEX 01 14:18:03
  TRACK 688 AUDIO
    TITLE "31:cjc024_6664"
    INDEX 01 14:18:24
  TRACK 689 AUDIO
    TITLE "0:"
    INDEX 01 14:21:19
  TRACK 690 AUDIO
    TITLE "28:cjc024_6665"
    INDEX 01 14:22:14
  TRACK 691 AUDIO
    TITLE "0:"
    INDEX 01 14:23:35
  TRACK 692 AUDIO
    TITLE "29:cjc024_6666"
    INDEX 01 14:24:00
  TRACK 693 AUDIO
    TITLE "0:"
    INDEX 01 14:26:14
  TRACK 694 AUDIO
    TITLE "30:cjc024_6667"
    INDEX 01 14:26:49
  TRACK 695 AUDIO
    TITLE "0:"
    INDEX 01 14:28:56
  TRACK 696 AUDIO
    TITLE "31:cjc024_6668"
    INDEX 01 14:29:07
  TRACK 697 AUDIO
    TITLE "0:"
    INDEX 01 14:31:11
  TRACK 698 AUDIO
    TITLE "28:cjc024_6669"
    INDEX 01 14:32:13
  TRACK 699 AUDIO
    TITLE "0:"
    INDEX 01 14:33:34
  TRACK 700 AUDIO
    TITLE "29:cjc024_6670"
    INDEX 01 14:34:06
  TRACK 701 AUDIO
    TITLE "0:"
    INDEX 01 14:36:11
  TRACK 702 AUDIO
    TITLE "30:cjc024_6671"
    INDEX 01 14:36:50
  TRACK 703 AUDIO
    TITLE "0:"
    INDEX 01 14:38:68
  TRACK 704 AUDIO
    TITLE "31:cjc024_6672"
    INDEX 01 14:39:21
  TRACK 705 AUDIO
    TITLE "0:"
    INDEX 01 14:41:39
  TRACK 706 AUDIO
    TITLE "28:cjc024_6673"
    INDEX 01 14:42:41
  TRACK 707 AUDIO
    TITLE "0:"
    INDEX 01 14:43:54
  TRACK 708 AUDIO
    TITLE "29:cjc024_6674"
    INDEX 01 14:44:24
  TRACK 709 AUDIO
    TITLE "0:"
    INDEX 01 14:46:66
  TRACK 710 AUDIO
    TITLE "30:cjc024_6675"
    INDEX 01 14:47:28
  TRACK 711 AUDIO
    TITLE "0:"
    INDEX 01 14:49:50
  TRACK 712 AUDIO
    TITLE "31:cjc024_6676"
    INDEX 01 14:50:03
  TRACK 713 AUDIO
    TITLE "0:"
    INDEX 01 14:52:25
  TRACK 714 AUDIO
    TITLE "28:cjc024_6677"
    INDEX 01 14:53:29
  TRACK 715 AUDIO
    TITLE "0:"
    INDEX 01 14:54:38
  TRACK 716 AUDIO
    TITLE "29:cjc024_6678"
    INDEX 01 14:55:00
  TRACK 717 AUDIO
    TITLE "0:"
    INDEX 01 14:56:50
  TRACK 718 AUDIO
    TITLE "30:cjc024_6679"
    INDEX 01 14:57:17
  TRACK 719 AUDIO
    TITLE "0:"
    INDEX 01 14:58:73
  TRACK 720 AUDIO
    TITLE "31:cjc024_6680"
    INDEX 01 14:59:23
  TRACK 721 AUDIO
    TITLE "0:"
    INDEX 01 15:01:07
  TRACK 722 AUDIO
    TITLE "28:cjc024_6681"
    INDEX 01 15:02:02
  TRACK 723 AUDIO
    TITLE "0:"
    INDEX 01 15:03:19
  TRACK 724 AUDIO
    TITLE "29:cjc024_6682"
    INDEX 01 15:03:58
  TRACK 725 AUDIO
    TITLE "0:"
    INDEX 01 15:06:00
  TRACK 726 AUDIO
    TITLE "30:cjc024_6683"
    INDEX 01 15:06:35
  TRACK 727 AUDIO
    TITLE "0:"
    INDEX 01 15:08:18
  TRACK 728 AUDIO
    TITLE "31:cjc024_6684"
    INDEX 01 15:08:46
  TRACK 729 AUDIO
    TITLE "0:"
    INDEX 01 15:10:25
  TRACK 730 AUDIO
    TITLE "28:cjc024_6685"
    INDEX 01 15:11:27
  TRACK 731 AUDIO
    TITLE "0:"
    INDEX 01 15:12:44
  TRACK 732 AUDIO
    TITLE "29:cjc024_6686"
    INDEX 01 15:13:04
  TRACK 733 AUDIO
    TITLE "0:"
    INDEX 01 15:15:52
  TRACK 734 AUDIO
    TITLE "30:cjc024_6687"
    INDEX 01 15:16:14
  TRACK 735 AUDIO
    TITLE "0:"
    INDEX 01 15:17:68
  TRACK 736 AUDIO
    TITLE "31:cjc024_6688"
    INDEX 01 15:18:23
  TRACK 737 AUDIO
    TITLE "0:"
    INDEX 01 15:20:04
  TRACK 738 AUDIO
    TITLE "28:cjc024_6689"
    INDEX 01 15:21:03
  TRACK 739 AUDIO
    TITLE "0:"
    INDEX 01 15:22:01
  TRACK 740 AUDIO
    TITLE "29:cjc024_6690"
    INDEX 01 15:22:36
  TRACK 741 AUDIO
    TITLE "0:"
    INDEX 01 15:24:43
  TRACK 742 AUDIO
    TITLE "30:cjc024_6691"
    INDEX 01 15:25:05
  TRACK 743 AUDIO
    TITLE "0:"
    INDEX 01 15:26:40
  TRACK 744 AUDIO
    TITLE "31:cjc024_6692"
    INDEX 01 15:26:63
  TRACK 745 AUDIO
    TITLE "0:"
    INDEX 01 15:28:23
  TRACK 746 AUDIO
    TITLE "28:cjc024_6693"
    INDEX 01 15:29:21
  TRACK 747 AUDIO
    TITLE "0:"
    INDEX 01 15:30:36
  TRACK 748 AUDIO
    TITLE "29:cjc024_6694"
    INDEX 01 15:30:73
  TRACK 749 AUDIO
    TITLE "0:"
    INDEX 01 15:32:44
  TRACK 750 AUDIO
    TITLE "30:cjc024_6695"
    INDEX 01 15:33:07
  TRACK 751 AUDIO
    TITLE "0:"
    INDEX 01 15:34:57
  TRACK 752 AUDIO
    TITLE "31:cjc024_6696"
    INDEX 01 15:35:05
  TRACK 753 AUDIO
    TITLE "0:"
    INDEX 01 15:36:58
  TRACK 754 AUDIO
    TITLE "28:cjc024_6697"
    INDEX 01 15:37:55
  TRACK 755 AUDIO
    TITLE "0:"
    INDEX 01 15:38:72
  TRACK 756 AUDIO
    TITLE "29:cjc024_6698"
    INDEX 01 15:39:37
  TRACK 757 AUDIO
    TITLE "0:"
    INDEX 01 15:41:32
  TRACK 758 AUDIO
    TITLE "30:cjc024_6699"
    INDEX 01 15:41:71
  TRACK 759 AUDIO
    TITLE "0:"
    INDEX 01 15:43:52
  TRACK 760 AUDIO
    TITLE "31:cjc024_6700"
    INDEX 01 15:44:00
  TRACK 761 AUDIO
    TITLE "0:"
    INDEX 01 15:45:61
  TRACK 762 AUDIO
    TITLE "28:cjc024_6701"
    INDEX 01 15:46:58
  TRACK 763 AUDIO
    TITLE "0:"
    INDEX 01 15:47:73
  TRACK 764 AUDIO
    TITLE "29:cjc024_6702"
    INDEX 01 15:48:36
  TRACK 765 AUDIO
    TITLE "0:"
    INDEX 01 15:50:13
  TRACK 766 AUDIO
    TITLE "30:cjc024_6703"
    INDEX 01 15:50:48
  TRACK 767 AUDIO
    TITLE "0:"
    INDEX 01 15:52:20
  TRACK 768 AUDIO
    TITLE "31:cjc024_6704"
    INDEX 01 15:52:43
  TRACK 769 AUDIO
    TITLE "0:"
    INDEX 01 15:54:15
  TRACK 770 AUDIO
    TITLE "28:cjc024_6705"
    INDEX 01 15:55:14
  TRACK 771 AUDIO
    TITLE "0:"
    INDEX 01 15:56:27
  TRACK 772 AUDIO
    TITLE "29:cjc024_6706"
    INDEX 01 15:56:66
  TRACK 773 AUDIO
    TITLE "0:"
    INDEX 01 15:59:49
  TRACK 774 AUDIO
    TITLE "30:cjc024_6707"
    INDEX 01 16:00:07
  TRACK 775 AUDIO
    TITLE "0:"
    INDEX 01 16:02:18
  TRACK 776 AUDIO
    TITLE "31:cjc024_6708"
    INDEX 01 16:02:42
  TRACK 777 AUDIO
    TITLE "0:"
    INDEX 01 16:04:48
  TRACK 778 AUDIO
    TITLE "28:cjc024_6709"
    INDEX 01 16:05:50
  TRACK 779 AUDIO
    TITLE "0:"
    INDEX 01 16:06:63
  TRACK 780 AUDIO
    TITLE "29:cjc024_6710"
    INDEX 01 16:07:25
  TRACK 781 AUDIO
    TITLE "0:"
    INDEX 01 16:09:44
  TRACK 782 AUDIO
    TITLE "30:cjc024_6711"
    INDEX 01 16:10:08
  TRACK 783 AUDIO
    TITLE "0:"
    INDEX 01 16:12:22
  TRACK 784 AUDIO
    TITLE "31:cjc024_6712"
    INDEX 01 16:12:50
  TRACK 785 AUDIO
    TITLE "0:"
    INDEX 01 16:14:64
  TRACK 786 AUDIO
    TITLE "28:cjc024_6713"
    INDEX 01 16:15:68
  TRACK 787 AUDIO
    TITLE "0:"
    INDEX 01 16:17:43
  TRACK 788 AUDIO
    TITLE "29:cjc024_6714"
    INDEX 01 16:18:05
  TRACK 789 AUDIO
    TITLE "0:"
    INDEX 01 16:20:02
  TRACK 790 AUDIO
    TITLE "30:cjc024_6715"
    INDEX 01 16:20:37
  TRACK 791 AUDIO
    TITLE "0:"
    INDEX 01 16:22:70
  TRACK 792 AUDIO
    TITLE "31:cjc024_6716"
    INDEX 01 16:23:18
  TRACK 793 AUDIO
    TITLE "0:"
    INDEX 01 16:25:46
  TRACK 794 AUDIO
    TITLE "28:cjc024_6717"
    INDEX 01 16:26:50
  TRACK 795 AUDIO
    TITLE "0:"
    INDEX 01 16:27:57
  TRACK 796 AUDIO
    TITLE "29:cjc024_6718"
    INDEX 01 16:28:21
  TRACK 797 AUDIO
    TITLE "0:"
    INDEX 01 16:29:72
  TRACK 798 AUDIO
    TITLE "30:cjc024_6719"
    INDEX 01 16:30:36
  TRACK 799 AUDIO
    TITLE "0:"
    INDEX 01 16:32:07
  TRACK 800 AUDIO
    TITLE "31:cjc024_6720"
    INDEX 01 16:32:39
  TRACK 801 AUDIO
    TITLE "0:"
    INDEX 01 16:34:10
